<svg width="394" height="57" viewBox="0 0 394 57" fill="none" xmlns="http://www.w3.org/2000/svg">
<path d="M3.74902 13.8472C25.4497 11.2941 46.5072 6.98439 68.5015 5.88295C145.04 2.05003 222.996 6.32468 299.463 10.2113C324.984 11.5085 350.465 13.5099 375.903 15.9248C380.461 16.3575 393.387 16.7624 389.32 18.8681C382.73 22.2811 372.424 23.6284 365.514 24.5815C339.183 28.2134 312.437 27.3511 285.959 26.486C222.924 24.4265 161.646 20.3606 98.8001 27.8711C80.7853 30.024 61.8688 32.0963 44.4357 37.4801C37.9635 39.4789 29.0532 42.6559 25.3909 49.1667C23.6346 52.2889 32.7159 49.7471 36.1253 48.6473C54.6976 42.6562 73.542 35.5074 92.9135 32.5457C137.608 25.7126 184.314 30.9305 228.911 34.8831C274.92 38.9607 319.643 46.5472 365.255 52.8025" stroke="#FF0000" stroke-width="7" stroke-linecap="round"/>
</svg>
